# xmcd CD database file
#
# Track frame offsets:
#	150
#	15724
#	30135
#	49082
#	64763
#	81400
#	97431
#	114846
#	136644
#	156133
#	173431
#	192335
#	208904
#	222777
#	238165
#	254852
#	267382
#	279477
#	289466
#	306777
#
# Disc length: 4222 seconds
#
# Revision: 1
# Processed by: cddbd v1.5.2PL0 Copyright (c) Steve Scherf et al.
# Submitted via: CDex 1.78
#
DISCID=2a107c14
DTITLE=Various Artist - TSP Country and Americana Vol 149
DYEAR=2015
DGENRE=Country
TTITLE0=Dennis Ledbetter - Blame The Whiskey
TTITLE1=Marv Goble - The Alzheimer's Song
TTITLE2=B&B On The Rocks - Better Than Me
TTITLE3=Sheriff Bud Torres - Louisiana State Of Mind
TTITLE4=Jesse Jones - All The Things A Man Should Do
TTITLE5=Fiddler Tim Smith - I'm A Pilgrim
TTITLE6=Darrell Goldman - The Bed I've Made
TTITLE7=Brad Gray - Annabelle
TTITLE8=John Biord - It's Gonna Be Okay
TTITLE9=John Johnson - Spending My Time With You
TTITLE10=Tony Clarke - I Am What I Am
TTITLE11=Presley Sullivan - I Wish I'd Never Met You
TTITLE12=Maria Carmi - Sails To The Wind
TTITLE13=Art Carter - Two Hearts Are As One
TTITLE14=Sheriff Bud Torres - Louisiana Rain
TTITLE15=Darrell Goldman - Lookin' For Love
TTITLE16=Fiddler Tim Smith - Milford's Old Fiddle
TTITLE17=Brad Gray - If You Love Me
TTITLE18=Jody Upp - He's Not A Keeper
TTITLE19=Jim Flynn - Early Years
EXTD=YEAR: 2015
EXTT0=
EXTT1=
EXTT2=
EXTT3=
EXTT4=
EXTT5=
EXTT6=
EXTT7=
EXTT8=
EXTT9=
EXTT10=
EXTT11=
EXTT12=
EXTT13=
EXTT14=
EXTT15=
EXTT16=
EXTT17=
EXTT18=
EXTT19=
PLAYORDER=
